<svg width="22" height="22" viewBox="0 0 22 22" fill="none" xmlns="http://www.w3.org/2000/svg">
<path fill-rule="evenodd" clip-rule="evenodd" d="M3.27863 12.0786C1.36022 12.8222 0 14.6856 0 16.8667C0 19.7017 2.29827 22 5.13333 22C7.31439 22 9.17775 20.6398 9.92138 18.7214L3.27863 12.0786Z" fill="#1E4841"/>
<path fill-rule="evenodd" clip-rule="evenodd" d="M15.012 12.0786C13.0936 12.8222 11.7333 14.6856 11.7333 16.8667C11.7333 19.7017 14.0316 22 16.8667 22C19.0477 22 20.9111 20.6398 21.6547 18.7214L15.012 12.0786Z" fill="#1E4841"/>
<path fill-rule="evenodd" clip-rule="evenodd" d="M15.012 0C13.0936 0.743632 11.7333 2.60699 11.7333 4.78804C11.7333 7.62311 14.0316 9.92138 16.8667 9.92138C19.0477 9.92138 20.9111 8.56116 21.6547 6.64275L15.012 0Z" fill="#1E4841"/>
<path fill-rule="evenodd" clip-rule="evenodd" d="M3.27863 0.345306C1.36022 1.08894 0 2.9523 0 5.13335C0 7.96841 2.29827 10.2667 5.13333 10.2667C7.31439 10.2667 9.17775 8.90646 9.92138 6.98805L3.27863 0.345306Z" fill="#1E4841"/>
</svg>
