<svg width="16" height="16" viewBox="0 0 16 16" fill="none" xmlns="http://www.w3.org/2000/svg">
<path fill-rule="evenodd" clip-rule="evenodd" d="M1.5 8C1.5 11.5893 4.40927 14.4991 7.99837 14.5H7.99999C11.5898 14.5 14.5 11.5899 14.5 8C14.5 4.41015 11.5899 1.5 8 1.5C4.41015 1.5 1.5 4.41015 1.5 8ZM8 2.5C4.96243 2.5 2.5 4.96243 2.5 8C2.5 10.869 4.69674 13.225 7.49999 13.4776V9.5H6C5.72386 9.5 5.5 9.27614 5.5 9C5.5 8.72386 5.72386 8.5 6 8.5H7.49999V6.99426C7.50279 6.74989 7.55083 6.47555 7.65003 6.23462C7.75025 5.99122 7.89769 5.77007 8.08382 5.58394C8.26995 5.39781 8.4911 5.25038 8.7345 5.15015C8.97756 5.05007 9.238 4.99904 9.50085 5H10.4999C10.776 5 10.9999 5.22386 10.9999 5.5C10.9999 5.77614 10.776 6 10.4999 6H9.49778C9.36658 5.99945 9.23656 6.02488 9.11524 6.07483C8.99392 6.12479 8.8837 6.19827 8.79092 6.29105C8.69815 6.38382 8.62466 6.49405 8.57471 6.61537C8.52997 6.72403 8.50186 6.86972 8.49999 7.00315V8.5H10C10.2761 8.5 10.5 8.72386 10.5 9C10.5 9.27614 10.2761 9.5 10 9.5H8.49999V13.4776C11.3032 13.225 13.5 10.869 13.5 8C13.5 4.96243 11.0376 2.5 8 2.5Z" fill="#1E4841"/>
</svg>
