<svg width="16" height="16" viewBox="0 0 16 16" fill="none" xmlns="http://www.w3.org/2000/svg">
<path fill-rule="evenodd" clip-rule="evenodd" d="M9.2243 3.58714L7.99539 4.81605C7.80013 5.01131 7.48355 5.01131 7.28829 4.81605C7.09302 4.62079 7.09302 4.30421 7.28829 4.10894L8.52579 2.87144C8.53124 2.86599 8.53682 2.86066 8.54253 2.85546C9.16152 2.29128 9.97409 1.9873 10.8114 2.00669C11.6487 2.02607 12.4463 2.36733 13.0385 2.95955C13.6308 3.55177 13.972 4.3494 13.9914 5.1867C14.0108 6.024 13.7068 6.83657 13.1426 7.45556C13.1372 7.46148 13.1317 7.46727 13.126 7.47292L11.3586 9.23414C11.3583 9.23436 11.3581 9.23457 11.3579 9.23479C11.0567 9.53698 10.6988 9.77677 10.3047 9.94043C9.91038 10.1042 9.48759 10.1885 9.06059 10.1885C8.63359 10.1885 8.2108 10.1042 7.81646 9.94043C7.42212 9.77665 7.06399 9.53663 6.76262 9.23414C6.56773 9.03851 6.56832 8.72193 6.76395 8.52703C6.95957 8.33214 7.27616 8.33273 7.47105 8.52836C7.67951 8.7376 7.92723 8.90362 8.20001 9.0169C8.47278 9.13019 8.76523 9.1885 9.06059 9.1885C9.35595 9.1885 9.6484 9.13019 9.92117 9.0169C10.1939 8.90362 10.4417 8.7376 10.6501 8.52836L10.6514 8.52707L12.4112 6.77347C12.7972 6.34565 13.005 5.7862 12.9917 5.20984C12.9782 4.62968 12.7418 4.077 12.3314 3.66665C11.9211 3.25631 11.3684 3.01985 10.7882 3.00642C10.2117 2.99307 9.65217 3.20096 9.2243 3.58714Z" fill="#1E4841"/>
<path fill-rule="evenodd" clip-rule="evenodd" d="M6.93559 6.81149C6.64023 6.81149 6.34778 6.8698 6.075 6.98309C5.80223 7.09637 5.55451 7.2624 5.34605 7.47164L5.34477 7.47293L3.58495 9.22652C3.19895 9.65435 2.99117 10.2138 3.00451 10.7901C3.01794 11.3703 3.2544 11.923 3.66475 12.3333C4.07509 12.7437 4.62777 12.9801 5.20794 12.9936C5.78443 13.0069 6.34401 12.799 6.77188 12.4128L8.00079 11.1839C8.19605 10.9887 8.51263 10.9887 8.70789 11.1839C8.90315 11.3792 8.90315 11.6958 8.70789 11.891L7.47039 13.1285C7.46494 13.134 7.45935 13.1393 7.45365 13.1445C6.83466 13.7087 6.02209 14.0127 5.18479 13.9933C4.34749 13.9739 3.54986 13.6327 2.95764 13.0404C2.36542 12.4482 2.02416 11.6506 2.00478 10.8133C1.9854 9.976 2.28938 9.16342 2.85355 8.54443C2.85895 8.53851 2.86449 8.53272 2.87016 8.52707L4.63762 6.76585C4.63785 6.76563 4.63808 6.7654 4.6383 6.76518C4.93953 6.463 5.29741 6.22322 5.69146 6.05957C6.0858 5.89579 6.50859 5.81149 6.93559 5.81149C7.36259 5.81149 7.78538 5.89579 8.17972 6.05957C8.57406 6.22334 8.93219 6.46336 9.23355 6.76585C9.42845 6.96148 9.42786 7.27806 9.23223 7.47296C9.0366 7.66786 8.72002 7.66726 8.52513 7.47164C8.31667 7.2624 8.06894 7.09637 7.79617 6.98309C7.5234 6.8698 7.23095 6.81149 6.93559 6.81149Z" fill="#1E4841"/>
</svg>
