<svg width="16" height="16" viewBox="0 0 16 16" fill="none" xmlns="http://www.w3.org/2000/svg">
<path fill-rule="evenodd" clip-rule="evenodd" d="M2.71838 2.08689C2.94654 1.93133 3.2576 1.99018 3.41316 2.21833L10.9132 13.2183C11.0687 13.4465 11.0099 13.7576 10.7817 13.9131C10.5536 14.0687 10.2425 14.0098 10.0869 13.7817L2.58693 2.78167C2.43137 2.55351 2.49022 2.24245 2.71838 2.08689Z" fill="#1E4841"/>
<path fill-rule="evenodd" clip-rule="evenodd" d="M5.21838 2.08689C5.44654 1.93133 5.7576 1.99018 5.91316 2.21833L13.4132 13.2183C13.5687 13.4465 13.5099 13.7576 13.2817 13.9131C13.0536 14.0687 12.7425 14.0098 12.5869 13.7817L5.08693 2.78167C4.93137 2.55351 4.99022 2.24245 5.21838 2.08689Z" fill="#272932"/>
<path fill-rule="evenodd" clip-rule="evenodd" d="M13.3363 2.13003C13.132 1.94428 12.8158 1.95934 12.63 2.16367L8.38003 6.83867C8.19427 7.043 8.20933 7.35922 8.41366 7.54497C8.61799 7.73073 8.93421 7.71567 9.11997 7.51134L13.37 2.83634C13.5557 2.63201 13.5407 2.31579 13.3363 2.13003ZM7.58633 8.45503C7.382 8.26928 7.06578 8.28434 6.88003 8.48867L2.63003 13.1637C2.44427 13.368 2.45933 13.6842 2.66366 13.87C2.86799 14.0557 3.18421 14.0407 3.36997 13.8363L7.61997 9.16134C7.80572 8.95701 7.79066 8.64079 7.58633 8.45503Z" fill="#272932"/>
</svg>
